<svg xmlns="http://www.w3.org/2000/svg" width="23.899" height="22.947" viewBox="0 0 23.899 22.947">
  <g id="Polygon_6" data-name="Polygon 6" transform="matrix(0.891, 0.454, -0.454, 0.891, 7.412, 0)" fill="none">
    <path d="M7.512,3.07a2,2,0,0,1,3.48,0l5.82,10.269a2,2,0,0,1-1.74,2.986H3.432a2,2,0,0,1-1.74-2.986Z" stroke="none"/>
    <path d="M 9.252098083496094 3.056318283081055 C 9.076897621154785 3.056318283081055 8.64140796661377 3.105718612670898 8.382107734680176 3.563267707824707 L 2.562337875366211 13.83221817016602 C 2.306587219238281 14.28347778320312 2.481317520141602 14.6794376373291 2.568318367004395 14.82873821258545 C 2.655307769775391 14.97803783416748 2.913638114929199 15.32527828216553 3.432328224182129 15.32527828216553 L 15.07186794281006 15.32527828216553 C 15.59055805206299 15.32527828216553 15.8488883972168 14.97803783416748 15.93588829040527 14.82873821258545 C 16.02287864685059 14.6794376373291 16.19760894775391 14.28347778320312 15.94186782836914 13.83221817016602 L 10.12208843231201 3.563258171081543 C 9.862788200378418 3.105718612670898 9.427298545837402 3.056318283081055 9.252098083496094 3.056318283081055 M 9.252094268798828 2.056320190429688 C 9.93055534362793 2.056320190429688 10.60901832580566 2.394283294677734 10.99208831787109 3.070208549499512 L 16.81186866760254 13.3391580581665 C 17.56746864318848 14.67242813110352 16.60436820983887 16.32527732849121 15.07186794281006 16.32527732849121 L 3.432328224182129 16.32527732849121 C 1.89982795715332 16.32527732849121 0.9367275238037109 14.67242813110352 1.692338943481445 13.3391580581665 L 7.512107849121094 3.070208549499512 C 7.895173072814941 2.394283294677734 8.573633193969727 2.056320190429688 9.252094268798828 2.056320190429688 Z" stroke="none" fill="#07265a"/>
  </g>
</svg>
