<?xml version="1.0" encoding="UTF-8"?>
<svg xmlns="http://www.w3.org/2000/svg" version="1.1" viewBox="0 0 164.9 164.9">
  <defs>
    <style>
      .cls-1 {
        fill: #124AAB;
      }
    </style>
  </defs>
  <!-- Generator: Adobe Illustrator 28.7.1, SVG Export Plug-In . SVG Version: 1.2.0 Build 142)  -->
  <g>
    <g id="Layer_1">
      <g>
        <path class="cls-1" d="M114.1,50.7c-1.8-1.8-4.7-1.8-6.5,0l-25.6,25.6-25.6-25.6c-1.8-1.8-4.7-1.8-6.5,0-1.8,1.8-1.8,4.7,0,6.5l25.6,25.6-25.6,25.6c-1.8,1.8-1.8,4.7,0,6.5.9.9,2.1,1.3,3.3,1.3s2.4-.5,3.3-1.3l25.6-25.6,25.6,25.6c.9.9,2.1,1.3,3.3,1.3s2.4-.5,3.3-1.3c1.8-1.8,1.8-4.7,0-6.5l-25.6-25.6,25.6-25.6c1.8-1.8,1.8-4.7,0-6.5Z"/>
        <path class="cls-1" d="M156.5,46.9C142.3,18.8,119.5,3.4,88.9.4c-13.2-1.3-26.1,1.1-38.3,6.4-12,5.2-22.5,12.6-31,22.7C5.4,46.5-1,66.4.1,88.8c.6,11.7,3.6,22.7,8.7,33.1,4.6,9.3,10.9,17.1,19,23.4.9.7,1.9,1.4,2.8,2,0,0,.1-.2.2-.3-6.6-6.1-12.5-12.9-16.6-21,.6.7,1,1.4,1.5,2.2.7,1.1,1.4,2.3,2.3,3.3,1.7,1.9,3.6,3.7,5.4,5.5,6.3,6.5,13.2,12.1,21.2,16.2,3.6,1.9,7.2,3.9,11.3,4.5,14.3,5.5,29,6.8,43.9,3.5,21.8-4.9,38.5-17.3,50.4-36.8,0,0,.3.1.6.2-6.9,12.3-16.6,21.7-28.3,28.9-12.9,7.9-27.1,11.2-42.1,11.1.5,0,.9.2,1.4.2,5.6-.2,11.2-.3,16.8-.8,3.3-.3,6.6-1.3,9.8-2.3,8.3-2.6,16-6.7,23.1-11.7,6.9-4.9,12.6-11.2,17.7-18,9.9-13.3,15.1-28.2,15.8-44.9.5-14.1-2-27.7-8.3-40.3ZM102.9,157.5c-7.5,2.2-15.1,3-22.9,2.7-3.5-.2-6.9-.8-10.3-1.2-.3,0-.6,0-.8,0,4,1,8,1.6,12.1,1.6,4,0,8.1-.2,12.1-.2-27.7,4-54.7-9.2-68.3-28.3l1.4,1.2s0,0,.1,0c0-.1,0-.2-.2-.3-7.8-9.8-12.9-20.9-15.4-33.3-1.7-8.6-2.1-17.3-1-26,.7-5,1.7-9.9,3.5-14.6,2.4-6.6,5.4-12.9,9.5-18.5,1.3-1.9,2.8-3.6,4.3-5.3,2.5-2.6,5.1-5,7.6-7.5,9.8-9.2,21.3-14.7,34.3-17.1,21.2-3.9,40.7.7,58.2,13.6,7.3,5.4,13.1,12.2,18.2,19.7,3.7,5.4,6.3,11.4,8.6,17.5,1.7,4.5,2.6,9.2,3.2,13.9,1.8,14.8-.4,29-6.9,42.3-10,20.5-25.9,33.8-47.4,40.1ZM150.6,123.8c1.3-3.3,2.7-6.5,3.8-9.8,2.4-7.3,4.4-14.7,5.2-22.3.1-1.4.2-2.9.3-4.4.1-4.2.2-8.3.3-12.7,2.5,17.7-1.2,33.9-9.6,49.2Z"/>
        <path class="cls-1" d="M76.8,157.2c11.2,1,22-.6,32.5-4.8,32.8-13,51.5-48.5,44.2-83.8-.7-3.6-1.7-7.1-3-10.5-1.2-3.4-2.8-6.7-4.5-9.9-1.7-3.2-3.7-6.2-5.9-9.1-2.2-2.9-4.7-5.6-7.3-8.1-2.6-2.5-5.4-4.8-8.4-6.8-3-2-6.1-3.8-9.3-5.3-3-1.4-6.1-2.9-9.5-3.3-3.9-.5-7.7-1.7-11.6-2.6-1-.2-2-.3-2.9-.3-.9,0-1.9,0-2.8,0,2.8.9,5.7,1.1,8.3,2.4-14.9-2.6-29.3-1-43,5.6-13.7,6.6-24.1,16.9-31.5,30.4,0-.4,0-.9.3-1.2,2.5-3.7,4.9-7.5,7.4-11.2,1.6-2.4,3.1-4.8,4.9-7,7.9-9,17.8-14.8,29.3-17.9,1.8-.5,3.7-.9,5.5-1.4-2.1.2-4.3.6-6.4,1-.2,0-.4.1-.6.2-14.1,4.3-25.9,12.2-35.1,23.9-14.4,18-19.4,38.7-15.3,61.5,3.1,17.2,11.5,31.6,24.7,42.8,16.6,14.1,35.8,19.6,57.2,16.8,13.1-1.7,24.8-6.8,35.2-15.2,12.4-10.1,21.5-22.6,24.6-38.9.4-2.2.7-4.4,1.1-6.5-11,53.9-67.7,73.5-105.1,51.6.4.1.7.3,1.1.4,8.2,4.2,17,6.8,26.1,7.6ZM33.8,130.5c-21.8-23.4-23.5-56.6-9.2-81.5,15.5-27.1,43.2-35.8,62.3-33.9h-7.8c0,.1,0,.2,0,.3.5,0,.9,0,1.2.1-2.8.3-5.7.6-8.3.9,1.7,0,3.6,0,5.5,0,13.6-.4,26.6,2.3,38.4,9.4,15,9,24.9,22.1,30.1,39.1.9,2.8,1.8,5.6,2.1,8.5.3,3.8.5,7.7.7,11.5.4,6.1-1.1,12-2.7,17.8,0,.2-.2.5-.4.7.3-1.9.6-3.8,1-5.7,0,0,0,0-.1,0-.7,2.5-1.3,5.1-2.2,7.5-8.5,23.4-24.5,38.2-48.4,43.4-34.6,7.5-68.7-15.7-75.9-51-2.7-13.5-1.5-26.5,3.7-39.2.1-.3.2-.6.3-.9-.6,1.3-1.2,2.5-1.7,3.8-3.6,9.8-4.7,19.9-3.7,30.3,2.6,27.2,22.4,50.6,48.6,57.4,11.2,2.9,22.5,2.9,33.7-.2.3,0,.7-.2,1-.2-19.4,6.8-47.7,3.8-68.2-18.1Z"/>
        <path class="cls-1" d="M23.1,96c2.3,13.1,8.2,24.3,17.7,33.5,14.9,14.4,32.6,19.9,52.8,16.9,12.5-1.9,23.3-7.5,32.5-16.3,7.2-6.9,12.7-14.9,15.2-24.9,1.6-6.4,2.3-12.8,2-19.4-.8,30.5-24,56-53.8,59.1-27.1,2.9-52.5-13.2-62.2-39.1-9.9-26.2-.9-56,21.9-72.1,11.8-8.3,24.9-11.9,39.2-10.6,15.6,1.4,28.6,8.2,39.4,19.7-.1-.1-.2-.3-.3-.4-14.7-15.9-32.8-22.5-53.9-19.4-15.3,2.2-28,9.8-37.7,22-11.9,14.9-16,32.1-12.7,51Z"/>
        <path class="cls-1" d="M26,52.9c-.6,1.4-1.2,2.8-1.8,4.2.7-1.3,1.4-2.7,2.1-4-.1,0-.2,0-.3-.1Z"/>
        <path class="cls-1" d="M24.2,57.1c0,0,0,.2-.1.3h0s0,0,0,.1c0,0,0,0,0-.1,0,0,0-.2.1-.3Z"/>
      </g>
    </g>
  </g>
</svg>