<?xml version="1.0" encoding="UTF-8"?>
<svg id="Layer_1" data-name="Layer 1" xmlns="http://www.w3.org/2000/svg" viewBox="0 0 1080 1080">
  <defs>
    <style>
      .cls-1, .cls-2, .cls-3, .cls-4 {
        fill: none;
        stroke: #fff;
        stroke-linecap: round;
      }

      .cls-1, .cls-2, .cls-4 {
        stroke-miterlimit: 10;
      }

      .cls-1, .cls-3 {
        stroke-width: 13px;
      }

      .cls-2 {
        stroke-width: 9px;
      }

      .cls-3 {
        stroke-linejoin: round;
      }

      .cls-4 {
        stroke-width: 15.8px;
      }
    </style>
  </defs>
  <path class="cls-2" d="M387.5,399.5c-2.75-55.66,23.14-107.69,68-135,46.86-28.53,95.61-18.63,107-16"/>
  <g>
    <path class="cls-4" d="M657.96,544.16c71.77-70.5,99.67-164.35,69.53-234.92-17.22-40.33-50.68-66.68-66.72-77.65-54.88-37.5-112.31-35.35-133.43-34.02-67.65,4.26-145.24,43.51-174.87,120.09-30.29,78.27-1.79,173.06,71.83,230.14,3.91,3.03,8.09,4.95,12.41,8.24,8.48,6.45,13.3,16.63,13.3,27.29v103.16"/>
    <line class="cls-1" x1="433.5" y1="693" x2="662.5" y2="692"/>
    <line class="cls-1" x1="432.5" y1="718" x2="662.5" y2="717"/>
    <line class="cls-1" x1="433.5" y1="743" x2="662.5" y2="742"/>
    <path class="cls-3" d="M583.08,882.97h-96.47c-54.98.84-53.83-16.24-53.55-36.07l.6-42.7c.28-20.36,4.84-36.7,55.76-36.72l174.09-.48"/>
  </g>
</svg>