<?xml version="1.0" encoding="UTF-8"?>
<svg xmlns="http://www.w3.org/2000/svg" version="1.1" viewBox="0 0 1076 739">
  <defs>
    <style>
      .cls-1 {
        fill: none;
        stroke: #0a522c;
        stroke-linecap: round;
        stroke-linejoin: round;
        stroke-width: 19.4px;
      }
    </style>
  </defs>
  <!-- Generator: Adobe Illustrator 28.6.0, SVG Export Plug-In . SVG Version: 1.2.0 Build 709)  -->
  <g>
    <g id="Layer_1">
      <g>
        <path class="cls-1" d="M667.8,440.5h-173.5c-53.6-.1-96.8-33.8-96.3-75.1l1.1-88.9c.5-42.4,45.3-76.5,100.3-76.4h269.9"/>
        <path class="cls-1" d="M139.8,427.2h178.8c55.2.1,99.8,34.8,99.2,77.4l-1.1,91.6c-.5,43.7-46.7,78.8-103.3,78.8H35.3"/>
        <path class="cls-1" d="M752.8,440.1h184.1c56.8.1,102.7,34.1,102.2,75.7l-1.1,89.6c-.5,42.7-48,77.1-106.4,77h-286.3"/>
        <circle class="cls-1" cx="225.8" cy="320.9" r="61.1"/>
        <circle class="cls-1" cx="584.1" cy="93.4" r="61.1"/>
        <circle class="cls-1" cx="874.2" cy="320.9" r="61.1"/>
      </g>
    </g>
  </g>
</svg>