<svg xmlns="http://www.w3.org/2000/svg" width="53" height="52" viewBox="0 0 53 52">
  <g id="Group_97" data-name="Group 97" transform="translate(-1652 -155)">
    <path id="Icon_corebrands-linkedin-in" data-name="Icon corebrands-linkedin-in" d="M9.3,31.5H2.771V10.469H9.3ZM6.032,7.6A3.8,3.8,0,1,1,9.814,3.782,3.814,3.814,0,0,1,6.032,7.6ZM33.743,31.5H27.227V21.263c0-2.44-.049-5.569-3.4-5.569-3.4,0-3.916,2.65-3.916,5.393V31.5H13.392V10.469h6.263v2.869h.091a6.861,6.861,0,0,1,6.178-3.4c6.609,0,7.824,4.353,7.824,10.006V31.5Z" transform="translate(1660.5 165.25)" fill="#08522d"/>
    <g id="Rectangle_78" data-name="Rectangle 78" transform="translate(1652 155)" fill="none" stroke="#08522d" stroke-width="3">
      <rect width="53" height="52" rx="13" stroke="none"/>
      <rect x="1.5" y="1.5" width="50" height="49" rx="11.5" fill="none"/>
    </g>
  </g>
</svg>
