<?xml version="1.0" encoding="UTF-8"?>
<svg id="Layer_1" xmlns="http://www.w3.org/2000/svg" viewBox="0 0 1000 841">
  <defs>
    <style>
      .cls-1 {
        fill: #0e522c;
      }
    </style>
  </defs>
  <path class="cls-1" d="M503.56,369.37l-229.39-.58h-.03c-7.16,0-12.98,5.8-13,12.97-.02,7.18,5.79,13.01,12.97,13.03l229.4.58c41.68.08,80.72,14.49,104.44,38.57,14.56,14.78,22.13,31.96,21.9,49.7l-1.56,120.07c-.65,49.89-59.78,90.43-131.92,90.43h-.18l-71.68.2c-7.18.02-12.98,5.86-12.96,13.04.02,7.17,5.84,12.96,13,12.96h.87s-24.41,57.14-24.41,57.14l-35.3-76.28c-2.13-4.6-6.73-7.54-11.8-7.54H20.87c-7.18,0-13,5.82-13,13s5.82,13,13,13h324.72l44.09,95.26c2.13,4.6,6.74,7.54,11.8,7.54.06,0,.13,0,.19,0,5.14-.08,9.74-3.17,11.76-7.89l40.28-94.3,42.49-.12h.21c41.09,0,79.95-11.56,109.44-32.55,30.82-21.94,48.02-51.61,48.43-83.55l1.56-120.07c.32-24.83-9.84-48.44-29.38-68.28-28.49-28.91-74.44-46.23-122.9-46.32Z"/>
  <path class="cls-1" d="M936.5,8.81l-512.02-.51h-.19c-38.36,0-74.64,11.46-102.16,32.27-28.59,21.63-44.55,50.79-44.93,82.12l-1.44,118.07c-.31,25.52,9.96,49.6,29.71,69.63,27.03,27.41,67.93,43.19,112.24,43.27h206.03s53.25,97.42,53.25,97.42c2.28,4.18,6.66,6.76,11.41,6.76.09,0,.18,0,.27,0,4.85-.1,9.24-2.9,11.39-7.25l50.72-102.8c3.18-6.44.53-14.23-5.91-17.41-6.44-3.18-14.23-.53-17.41,5.91l-39.65,80.37-34.65-63.39c5.66-1.41,9.86-6.51,9.86-12.6,0-7.18-5.82-13-13-13h-232.29c-36.84-.08-71.89-13.36-93.75-35.53-14.77-14.98-22.45-32.63-22.23-51.06l1.44-118.07c.6-48.94,54.9-88.71,121.09-88.71h.16l512.02.51h.01c7.17,0,12.99-5.81,13-12.99,0-7.18-5.81-13.01-12.99-13.01Z"/>
</svg>