<?xml version="1.0" encoding="UTF-8"?>
<svg xmlns="http://www.w3.org/2000/svg" version="1.1" viewBox="0 0 1145.8 812.5">
  <defs>
    <style>
      .cls-1 {
        fill: #1c2a58;
      }
    </style>
  </defs>
  <!-- Generator: Adobe Illustrator 28.6.0, SVG Export Plug-In . SVG Version: 1.2.0 Build 709)  -->
  <g>
    <g id="Layer_1">
      <g>
        <path class="cls-1" d="M729.9,499.4c0-6-4.8-10.8-10.8-10.8h-194.3c-30.7,0-59.9-11.2-78.2-29.8-12.5-12.7-19-27.7-18.9-43.4l1.2-99.6c.5-41.3,46-74.9,101.4-74.9h302.4c6,0,10.8-4.9,10.8-10.8s-4.8-10.8-10.8-10.8h-302.4c-32.1,0-62.5,9.7-85.5,27.2-23.9,18.2-37.2,42.8-37.5,69.1l-1.2,99.6c-.3,21.3,8.6,42.2,25.1,58.9,22.6,22.9,56.7,36.1,93.6,36.2h194.4c6,0,10.8-4.9,10.8-10.8h0Z"/>
        <path class="cls-1" d="M328,473.7H127.8c-6,0-10.8,4.9-10.8,10.8s4.9,10.8,10.8,10.8h200.2c31.7,0,61.9,11.6,80.8,30.7,13,13.2,19.7,28.7,19.5,44.9l-1.2,102.6c-.5,42.8-47.5,77.5-104.7,77.5H10.8c-6,0-10.8,4.8-10.8,10.8s4.8,10.8,10.8,10.8h311.5c33,0,64.2-9.9,87.9-28,24.5-18.7,38.2-43.9,38.5-71l1.2-102.6c.3-21.8-8.9-43.3-25.8-60.4-23.2-23.6-58.3-37.1-96.2-37.2h0Z"/>
        <path class="cls-1" d="M1121.1,526.2c-23.8-24.2-60.4-38.1-100.6-38.1h-206.2c-6,0-10.8,4.9-10.8,10.8s4.8,10.8,10.8,10.8h206.1c33.8,0,65.6,11.9,85.1,31.7,12.3,12.5,18.7,27,18.5,42.1l-1.3,100.3c-.5,41.7-49,75.6-108.2,75.6h-320.8c-6,0-10.8,4.8-10.8,10.8s4.8,10.8,10.8,10.8h320.8c33.8,0,65.8-9.7,90.1-27.2,25.3-18.3,39.4-43.1,39.8-69.8l1.3-100.3c.3-21-8.3-40.9-24.7-57.6h0Z"/>
        <path class="cls-1" d="M224.2,444.7c43.7,0,79.3-35.6,79.3-79.3s-35.6-79.3-79.3-79.3-79.3,35.6-79.3,79.3,35.6,79.3,79.3,79.3ZM224.2,307.8c31.8,0,57.6,25.9,57.6,57.6s-25.9,57.6-57.6,57.6-57.6-25.9-57.6-57.6,25.9-57.6,57.6-57.6Z"/>
        <path class="cls-1" d="M625.4,190c43.7,0,79.3-35.6,79.3-79.3s-35.6-79.3-79.3-79.3-79.3,35.6-79.3,79.3,35.6,79.3,79.3,79.3ZM625.4,53c31.8,0,57.6,25.8,57.6,57.6s-25.8,57.6-57.6,57.6-57.6-25.9-57.6-57.6,25.8-57.6,57.6-57.6Z"/>
        <path class="cls-1" d="M950.3,444.7c43.7,0,79.3-35.6,79.3-79.3s-35.6-79.3-79.3-79.3-79.3,35.6-79.3,79.3,35.6,79.3,79.3,79.3h0ZM950.3,307.8c31.8,0,57.6,25.9,57.6,57.6s-25.8,57.6-57.6,57.6-57.6-25.9-57.6-57.6,25.8-57.6,57.6-57.6Z"/>
      </g>
    </g>
  </g>
</svg>