<?xml version="1.0" encoding="UTF-8"?>
<svg id="Layer_1" xmlns="http://www.w3.org/2000/svg" viewBox="0 0 1270 841">
  <defs>
    <style>
      .cls-1 {
        fill: #0e522c;
      }
    </style>
  </defs>
  <path class="cls-1" d="M801.11,522.49c0-7.18-5.82-13-13-13h-213.06c-33.33-.07-65.09-12.14-84.95-32.28-13.52-13.71-20.55-29.88-20.35-46.77l1.32-109.14c.54-44.7,49.87-81.02,110.01-81.02h331.5c7.18,0,13-5.82,13-13s-5.82-13-13-13h-331.51c-35.44,0-68.96,10.67-94.39,30.06-26.47,20.18-41.25,47.4-41.6,76.65l-1.32,109.14c-.29,23.64,9.6,46.85,27.83,65.34,25,25.35,62.69,39.94,103.44,40.02h213.08c7.18,0,13-5.81,13-12.99Z"/>
  <path class="cls-1" d="M359.34,493.19h-219.5s0,0,0,0c-7.18,0-13,5.82-13,13,0,7.18,5.82,13,13,13h219.48c34.44.08,67.26,12.55,87.79,33.37,14,14.2,21.29,30.95,21.07,48.46l-1.36,112.43c-.56,46.26-51.54,83.85-113.71,83.85H11.63c-7.18,0-13,5.82-13,13s5.82,13,13,13h341.5c36.42,0,70.86-10.96,96.99-30.88,27.17-20.71,42.34-48.64,42.7-78.65l1.36-112.43c.29-24.25-9.85-48.05-28.56-67.03-25.68-26.04-64.41-41.02-106.28-41.11Z"/>
  <path class="cls-1" d="M1229.56,551.16c-26.31-26.7-66.77-42.06-111.02-42.14h-226.03c-7.18,0-13,5.81-13,12.99s5.82,13,13,13h226c36.79.08,71.38,12.93,92.53,34.4,13.26,13.46,20.16,29.14,19.96,45.37l-1.4,110c-.57,45.11-53.25,81.77-117.48,81.77h-351.64c-7.18,0-13,5.82-13,13s5.82,13,13,13h351.65c37.3,0,72.6-10.68,99.39-30.08,28.05-20.31,43.7-47.78,44.07-77.35l1.4-110c.3-23.32-9.19-45.43-27.44-63.95Z"/>
  <path class="cls-1" d="M245.53,463.71c48.56,0,88.06-39.5,88.06-88.06s-39.5-88.06-88.06-88.06-88.06,39.5-88.06,88.06,39.5,88.06,88.06,88.06ZM245.53,313.59c34.22,0,62.06,27.84,62.06,62.06s-27.84,62.06-62.06,62.06-62.06-27.84-62.06-62.06,27.84-62.06,62.06-62.06Z"/>
  <path class="cls-1" d="M685.42,184.42c48.56,0,88.06-39.5,88.06-88.06s-39.5-88.06-88.06-88.06-88.06,39.5-88.06,88.06,39.5,88.06,88.06,88.06ZM685.42,34.3c34.22,0,62.06,27.84,62.06,62.06s-27.84,62.06-62.06,62.06-62.06-27.84-62.06-62.06,27.84-62.06,62.06-62.06Z"/>
  <path class="cls-1" d="M1041.51,463.71c48.56,0,88.06-39.5,88.06-88.06s-39.5-88.06-88.06-88.06-88.06,39.5-88.06,88.06,39.5,88.06,88.06,88.06ZM1041.51,313.59c34.22,0,62.06,27.84,62.06,62.06s-27.84,62.06-62.06,62.06-62.06-27.84-62.06-62.06,27.84-62.06,62.06-62.06Z"/>
</svg>