<?xml version="1.0" encoding="UTF-8"?>
<svg xmlns="http://www.w3.org/2000/svg" version="1.1" viewBox="0 0 1092.2 135.8">
  <defs>
    <style>
      .cls-1 {
        fill: red;
      }
    </style>
  </defs>
  <!-- Generator: Adobe Illustrator 28.7.1, SVG Export Plug-In . SVG Version: 1.2.0 Build 142)  -->
  <g>
    <g id="Layer_1">
      <path id="Union_1" class="cls-1" d="M1070.2,135.4c-4.2,0-10,.7-13.6-.3h-3.8c-1.1,0-2.3,0-3.5,0-3.2.1-6.6.2-9-.4h-7.3l-11.5-.4c-2.9,0-6.8.3-9.1-.3h-12.2c-2.1-.4-4.3-.5-6.4-.4-.7,0-1.4,0-2,0h-3.1v-.3h-3.5c-2.6,0-5.1,0-7.7-.4-1.6-.2-3.1-.2-4.7-.1-1.7.2-3.4,0-5.1-.2h-9.4v-.3h-9.1v-.3h-9.1v-.3h-8.4c-2.6-.5-5.2-.7-7.9-.5-2.6.2-5.3,0-7.8-.5-7.2-.2-14.4-.5-21.6-.7v-.3l-9.1-.3h-4.5v-.3l-8.7-.3h-3.8v-.3h-6.3v-.3h-5.9v-.3h-5.6v-.3l-7.7-.3h-3.8v-.3h-5.2v-.3c-8.6-.5-17.2-.9-25.8-1.4v-.3h-4.9v-.3h-4.5v-.3h-4.9v-.3h-4.5v-.3h-4.5v-.3h-4.5c-.5-.1.1-.3-.3-.3h-3.8v-.3h-4.5v-.3h-4.2v-.3h-4.2v-.3h-4.2v-.3h-3.8v-.3h-4.2v-.3h-3.8v-.3h-4.2v-.3h-3.8v-.3h-3.5v-.3h-3.8v-.3h-3.8v-.3h-3.5v-.3h-3.8v-.4h-3.5v-.3h-3.5v-.3c-6.9-.6-13.7-1.2-20.6-1.7-3.7-1.1-8.8-.7-12.6-1.7h-3.1v-.3h-3.1v-.3h-3.1v-.3h-3.1v-.3h-2.8v-.3h-3.1v-.3h-2.8v-.3h-3.1v-.3h-2.8v-.3h-2.8v-.3h-2.8v-.4h-2.8v-.3h-2.8c-5-1.4-11.4-1-16.4-2.4l-5.2-.3c-5.4-1.6-12.4-1.2-17.8-2.8h-2.4v-.3h-2.4v-.3c-.6-.2-1.3-.2-1.9-.2-.8.1-1.6,0-2.2-.5l6.3.3v.3h4.5v.3h3.8c.5,0-.1.2.3.3h4.5v.3h4.2v.3h4.5s0,.3.7.3h3.8v.3h4.5v.3h4.5v.3h4.5s0,.3.7.3h3.8v.3h4.5v.3l9.4.3v.3h4.9v.3h4.5v.3h4.9v.4h4.9v.3h4.9v.3h4.5v.3l10.1.4v.3h4.9v.3l6.6.3h3.5v.3h4.9v.3h5.2v.3h3.5l7,.3v.3h3.5l7,.3v.3l16.4.7v.3h5.6v.3h5.6v.3l7.7.3h3.8v.3h5.6v.3h3.8l8,.4v.3h3.8l8.4.3v.3h3.8l8.4.4v.3c8.7.3,17.4.7,26.2,1,1.1.2,2.2.3,3.3.2,1.2-.1,2.5,0,3.7.2,2.3.5,4.6.7,7,.5,2.3-.1,4.7,0,7,.5,1.3.2,2.5.3,3.8.2,1.2-.1,2.3,0,3.5.2,1.3.2,2.6.3,3.8.2,1.2-.1,2.3,0,3.5.2,1.3.2,2.6.3,3.9.2,1.3-.1,2.5,0,3.8.2h4.9l10.8.3v.3l16.4.3v.3h9.1v.3h9.1v.3h9.4v.3h9.8v.3h10.5v.3h10.8c2,.4,4,.5,6,.3,1.8-.2,3.7-.1,5.5,0,1.3.2,2.6.3,3.8.3h9.4c2.4.7,6.4.4,9.4.4l12.6.3h7.7c3.6,1,10,.3,14.3.3h4.5c3.4,1,8.9.3,12.9.3,7.3.1,14.7.2,22,.3v9.1c-7.3-.1-14.7-.2-22-.4ZM7.2,0h1084.6v115.5c-.8.3-1.6.4-2.4.4-.8-.7-3.7-.3-5.2-.3h0s-15.4,0-15.4,0v-.3h-17.8v-.3h-2.4c-1.3,0-2.7,0-4.1.1-3.5.1-7.2.3-9.8-.5h-15c-2.2-.6-5.3-.5-8.3-.4-1.3,0-2.5,0-3.6,0h-1.7v-.3h-12.9v-.3h-1.4c-1.1,0-2.3,0-3.5,0-2.4.2-4.9,0-7.3-.4h-11.5v-.3h-11.2v-.3h-10.5v-.3h-10.1v-.3h-9.4v-.3h-9.4v-.3h-9.1v-.3h-9.1v-.3h-8.4v-.3l-11.5-.3h-4.9v-.3l-10.5-.4h-4.9c-1.3-.2-2.5-.3-3.8-.2-1.3.1-2.6,0-3.9-.2-1.2-.2-2.3-.3-3.5-.2-1.3.1-2.6,0-3.8-.2-1.1-.2-2.2-.3-3.3-.2-1.2.1-2.5,0-3.7-.2-2.3-.5-4.6-.7-7-.5-2.3.1-4.7,0-7-.5-6.6-.2-13.3-.5-19.9-.7v-.3h-6.3v-.3h-6.3v-.3h-6.3v-.3l-8-.3h-3.8v-.3h-5.9v-.3h-5.9v-.3l-7.3-.3h-3.8v-.3h-5.6v-.3h-5.6v-.3l-7-.3h-3.5v-.3h-5.6v-.3l-6.6-.3h-3.5v-.3h-5.2v-.3h-4.9v-.4h-4.9v-.3h-4.9v-.3h-4.9v-.3h-4.9v-.3h-4.5v-.3h-4.9v-.3h-4.5s0-.3-.7-.3h-3.8v-.3h-4.5v-.3c-7.4-.5-14.9-.9-22.3-1.4v-.3h-4.2v-.3h-4.2v-.3h-4.2v-.3h-4.2v-.3h-4.2v-.3h-4.2v-.3h-3.8v-.3h-4.2v-.3h-3.8v-.4h-4.2v-.3h-3.8v-.3h-3.8v-.3h-3.8v-.4h-4.2v-.3h-3.5v-.3h-3.8v-.3h-3.8v-.3h-3.8v-.3h-3.5v-.3h-3.8v-.3h-3.8v-.3h-3.5v-.3h-3.5v-.3h-3.8v-.3h-3.5v-.3h-3.5v-.3c-5.8-.5-11.6-.9-17.4-1.4-3.9-1.1-9.3-.6-13.3-1.7h-3.5v-.3h-3.1v-.3h-3.1v-.3h-3.5v-.3h-3.1v-.3h-3.1v-.3h-3.1v-.3h-3.5v-.3h-3.1v-.3h-3.1v-.3h-3.1v-.3h-3.1c-4.5-1.3-10.5-.8-15-2.1l-18.1-1.7v-.3h-2.8v-.3h-2.8v-.4h-3.1v-.3h-2.8v-.3h-2.8v-.3h-2.8v-.3h-2.8v-.3h-2.8v-.3h-2.8v-.3h-2.8v-.3h-2.8v-.3h-2.8c-5-1.4-11.5-1-16.4-2.4l-10.8-1v-.3h-2.4v-.3h-2.8v-.3h-2.4v-.4h-2.8v-.3h-2.4v-.3h-2.8c-4.5-1.3-10.5-1.1-15-2.4h-2.8v-.3l-9.8-1v-.3h-2.4v-.3h-2.4c-5.9-1.7-13.3-1.4-19.2-3.1l-7.3-.7c-4.1-1.2-9.5-1.2-13.6-2.4l-4.9-.3v-.3l-4.5-.3c-4-1.2-9.2-1.2-13.3-2.4l-4.5-.3c-3.9-1.2-9-1.3-12.9-2.4l-4.5-.3c-3.2-.9-7.3-1.1-10.5-2.1h-2.1c-1.8-.5-4.5-.9-6.3-1.4h-2.1c-1.8-.5-4.5-.9-6.3-1.4h-2.1c-6.1-1.9-13.8-2-19.9-3.8l-6.3-.7c-5.9-1.8-13.3-2-19.2-3.8h-2.1v-.3h-1.7v-.3h-2.1c-7-2.1-15.4-2.4-22.3-4.5l-5.6-.7c-6.1-1.9-13.5-2.3-19.5-4.2l-3.8-.4c-3.2-1-7.3-1.4-10.5-2.4l-3.5-.3c-2.5-.8-5.8-1.3-8.4-2.1l-3.5-.3v-.3h-1.7v-.3h-1.7v-.3h-1.7v-.3h-1.4v-.3h-1.7v-.3h-1.7v-.3h-1.7v-.3h-1.7c-6.1-2-13.4-2.6-19.5-4.5l-6.6-1v-.3l-3.1-.3v-.3h-1.4v-.3h-1.7v-.3h-1.7c-6.8-2.2-14.9-3.1-21.6-5.2h-1.7v-.3l-3.1-.3v-.3h-1.4v-.3h-1.4v-.3h-1.7v-.3h-1.4v-.3C2.1.3.8.7,0,0h7.2Z"/>
    </g>
  </g>
</svg>