<?xml version="1.0" encoding="UTF-8"?>
<svg id="Layer_1" data-name="Layer 1" xmlns="http://www.w3.org/2000/svg" viewBox="0 0 1080 1080">
  <defs>
    <style>
      .cls-1 {
        fill: none;
        stroke: #1c2a58;
        stroke-linecap: round;
        stroke-linejoin: round;
        stroke-width: 15.38px;
      }
    </style>
  </defs>
  <path class="cls-1" d="M643.7,606.04h-137.85c-42.57-.09-76.91-26.86-76.52-59.65l.85-70.61c.41-33.66,35.98-60.77,79.67-60.73h214.36"/>
  <path class="cls-1" d="M224.31,595.49h142c43.85.09,79.23,27.67,78.82,61.45l-.88,72.74c-.42,34.67-37.06,62.6-82.07,62.56h-220.82"/>
  <path class="cls-1" d="M711.24,605.73h146.23c45.16.09,81.59,27.07,81.17,60.12l-.91,71.16c-.43,33.92-38.16,61.24-84.51,61.2h-227.39"/>
  <circle class="cls-1" cx="292.69" cy="511.04" r="48.56"/>
  <circle class="cls-1" cx="577.27" cy="330.35" r="48.56"/>
  <circle class="cls-1" cx="807.64" cy="511.04" r="48.56"/>
</svg>