<?xml version="1.0" encoding="UTF-8"?>
<svg id="Layer_1" data-name="Layer 1" xmlns="http://www.w3.org/2000/svg" viewBox="0 0 1080 1080">
  <defs>
    <style>
      .cls-1 {
        fill: #fff;
        font-family: MyriadPro-Regular, 'Myriad Pro';
        font-size: 137px;
      }

      .cls-2 {
        letter-spacing: 0em;
      }

      .cls-3 {
        stroke-miterlimit: 10;
      }

      .cls-3, .cls-4 {
        fill: none;
        stroke: #fff;
        stroke-width: 14px;
      }

      .cls-4 {
        stroke-linejoin: round;
      }
    </style>
  </defs>
  <text class="cls-1" transform="translate(55.15 -124.16)"><tspan x="0" y="0">5. </tspan><tspan class="cls-2" x="127.68" y="0">c</tspan><tspan x="188.23" y="0">og</tspan></text>
  <circle class="cls-3" cx="540" cy="540" r="181.5"/>
  <g>
    <g>
      <path class="cls-4" d="M427,271l-5.99-19.98c-6.92-16.46,6.95-17.53,15.63-19.41l18.69-4.05c8.91-1.93,16.37-2.15,19.93,13.49l11.13,50.3"/>
      <path class="cls-4" d="M430,281l3.15,9.33c5.7,16.61-3.21,19.09-11.11,23.13l-17.02,8.71c-8.12,4.15-15.27,6.28-22.72-7.92l-27.42-37.98"/>
    </g>
    <g>
      <path class="cls-4" d="M284,398l-19.38-8.26c-15.77-8.38-18.09,5.34-20.75,13.81l-5.73,18.25c-2.73,8.7-3.63,16.11,11.63,21.07l49.08,15.64"/>
      <path class="cls-4" d="M292,401l10.67,4.39c16.02,7.18,19.3-1.46,24.04-8.97l10.22-16.17c4.87-7.71,11.57-13.04-.85-23.9l-40.63-29.71"/>
    </g>
  </g>
  <g>
    <g>
      <path class="cls-4" d="M249,567h-21.14c-17.79,1.52-14.54-12.01-13.65-20.84l1.9-19.03c.91-9.07,2.99-16.23,18.97-14.8l51.28,4.91"/>
      <path class="cls-4" d="M257,567l12,.57c17.56-.31,17.17,8.93,18.59,17.7l3.04,18.88c1.45,9,1.27,16.46-14.53,19.18l-44.58,14.39"/>
    </g>
    <g>
      <path class="cls-4" d="M326,742l-14.33,16.52c-12.83,12.42-.49,18.85,6.75,23.99l15.59,11.07c7.43,5.28,14.21,8.41,23.62-4.57l29.99-41.88"/>
      <path class="cls-4" d="M332,735l6.28-7.86c11.77-13.03,4.55-18.81-1.13-25.64l-12.23-14.7c-5.83-7.01-8.85-15.03-23-6.55l-40.78,29.51"/>
    </g>
  </g>
  <g>
    <g>
      <path class="cls-4" d="M476,826l-6.59,20.23c-4.21,17.36-16,9.98-24.1,6.34l-17.44-7.84c-8.32-3.74-14.45-7.99-8.03-22.68l20.91-47.08"/>
      <path class="cls-4" d="M479,818l3.98-10.61c5.27-16.75,13.91-13.46,22.68-12.02l18.87,3.1c9,1.48,16.01,4.01,13.58,19.86l-.48,46.85"/>
    </g>
    <g>
      <path class="cls-4" d="M667,809l10.61,18.45c7.71,16.11,17.72,6.44,24.9,1.2l15.44-11.28c7.36-5.38,12.48-10.81,3.15-23.85l-30.21-41.72"/>
      <path class="cls-4" d="M661,801l-4.72-8.73c-8.63-15.29-16.4-10.28-24.67-7.06l-17.82,6.94c-8.49,3.31-17.05,3.63-13.51,19.74l15.06,48.03"/>
    </g>
  </g>
  <g>
    <g>
      <path class="cls-4" d="M795,684l17,11.35c15.44,8.96,5.02,18.18-.77,24.91l-12.47,14.5c-5.94,6.91-11.76,11.58-24.03,1.25l-39.2-33.42"/>
      <path class="cls-4" d="M788,678l-9.38-6.7c-14.56-9.82-8.95-17.16-5.08-25.16l8.33-17.21c3.97-8.21,8.4-14.21,22.9-7.37l44.78,13.78"/>
    </g>
    <g>
      <path class="cls-4" d="M833,495l20.16-4.61c17.63-2.82,11.21-15.16,8.23-23.53l-6.43-18.01c-3.06-8.59-6.82-15.04-21.97-9.8l-48.59,17.11"/>
      <path class="cls-4" d="M825,498l-11.63,2.84c-17.12,3.93-14.52,12.8-13.78,21.65l1.59,19.06c.76,9.08-1.37,17.38,15.09,18.56l50.32-.79"/>
    </g>
  </g>
  <g>
    <path class="cls-4" d="M762,350l16.53-12.23c13.61-11.56,18.81,1.34,23.22,9.05l9.5,16.6c4.53,7.91,6.99,14.96-6.85,23.07l-44.6,25.78"/>
    <path class="cls-4" d="M754,355l-9.29,6.19c-14.12,10.45-19.17,2.7-25.41-3.62l-13.44-13.6c-6.41-6.49-10.59-12.66.7-24.05l27.95-37.6"/>
  </g>
  <path class="cls-4" d="M598,251l1.1-20.5c.9-16.5-10.54-15.64-19.43-15.62l-19.12.04c-9.12.02-16.45,1.4-16.58,17.44l-.11,51.51"/>
  <path class="cls-4" d="M597,260l-1.34,11.49c-2.66,17.51,7.22,17.96,15.81,20.22l18.49,4.87c8.82,2.32,15.93,7.1,22.53-8.02l16.07-47.7"/>
</svg>