<?xml version="1.0" standalone="no"?>
<!DOCTYPE svg PUBLIC "-//W3C//DTD SVG 20010904//EN"
 "http://www.w3.org/TR/2001/REC-SVG-20010904/DTD/svg10.dtd">
<svg version="1.0" xmlns="http://www.w3.org/2000/svg"
 width="2230.000000pt" height="2230.000000pt" viewBox="0 0 2230.000000 2230.000000"
 preserveAspectRatio="xMidYMid meet">

<g transform="translate(0.000000,2230.000000) scale(0.100000,-0.100000)"
fill="purple" stroke="none">
<path d="M10575 22279 c-1452 -74 -2933 -483 -4386 -1210 -1821 -911 -3227
-2159 -4345 -3859 -1120 -1703 -1723 -3579 -1825 -5675 -24 -494 -3 -1311 46
-1795 137 -1348 519 -2661 1141 -3925 555 -1130 1307 -2099 2264 -2920 296
-254 674 -532 698 -513 7 6 12 16 10 22 -2 7 -86 91 -188 187 -822 781 -1455
1573 -1917 2399 -39 69 -82 150 -97 180 -27 55 -27 55 -3 25 14 -16 76 -108
138 -205 62 -96 142 -220 178 -274 35 -55 98 -140 139 -190 102 -123 1206
-1226 1412 -1411 661 -591 1300 -1055 1960 -1423 204 -113 675 -356 841 -433
336 -156 652 -262 874 -295 28 -4 115 -32 195 -62 822 -309 1748 -528 2585
-612 352 -35 462 -41 850 -47 898 -14 1686 77 2590 297 2447 597 4443 1930
5957 3980 201 273 436 619 577 851 l53 87 34 -11 c19 -6 34 -16 34 -22 0 -6
-37 -74 -81 -151 -704 -1205 -1625 -2233 -2774 -3095 -1597 -1198 -3259 -1861
-5210 -2078 -367 -41 -858 -70 -1230 -72 -196 -1 -199 -2 -135 -15 42 -9 99
-12 160 -9 52 3 311 12 575 20 976 31 1504 64 1840 116 558 87 1442 369 2180
696 879 389 1868 994 2555 1562 861 713 1820 1848 2480 2937 933 1538 1438
3216 1531 5083 15 310 6 1184 -15 1456 -116 1475 -452 2743 -1051 3962 -1617
3295 -4142 5358 -7505 6132 -700 161 -1497 275 -2170 311 -219 11 -737 11
-965 -1z m1440 -1243 c418 -35 751 -82 1128 -156 1104 -219 2138 -625 3172
-1243 390 -233 964 -637 1275 -897 727 -608 1430 -1409 2093 -2386 407 -601
779 -1362 1157 -2370 236 -629 387 -1401 466 -2384 21 -266 30 -1004 15 -1285
-60 -1138 -287 -2186 -696 -3205 -211 -526 -489 -1084 -791 -1588 -1205 -2006
-2911 -3427 -5099 -4247 -1027 -384 -1967 -584 -2990 -635 -574 -28 -1068 -4
-1728 86 -771 104 -822 106 -422 19 306 -66 633 -112 960 -136 151 -11 860 -9
1705 6 l275 4 -135 -18 c-398 -56 -762 -74 -1300 -68 -516 6 -806 28 -1255 93
-1327 193 -2593 647 -3765 1348 -485 290 -972 645 -1425 1039 -185 161 -639
614 -799 799 -194 223 -486 591 -486 613 0 4 36 -24 81 -61 124 -103 118 -72
-19 107 -796 1031 -1398 2216 -1758 3461 -230 799 -367 1589 -426 2458 -15
236 -15 990 0 1225 72 1065 253 1962 565 2790 494 1314 1091 2343 1806 3111
224 242 827 830 1183 1155 1576 1439 3573 2241 5918 2378 240 14 1070 6 1295
-13z m9674 -9141 c39 -345 52 -575 58 -985 6 -434 -3 -702 -38 -1075 -108
-1177 -424 -2333 -954 -3490 -94 -206 -366 -747 -372 -741 -2 2 69 185 158
407 179 448 262 668 337 899 350 1073 566 1966 667 2750 56 442 66 641 90
1750 18 850 15 764 25 715 4 -22 18 -125 29 -230z"/>
<path d="M9145 20604 c-55 -8 -224 -35 -375 -60 -267 -45 -283 -49 -555 -139
-154 -51 -359 -123 -455 -160 -1905 -733 -3426 -1962 -4625 -3739 -892 -1323
-1436 -2748 -1629 -4276 -86 -677 -100 -1432 -41 -2145 235 -2803 1382 -5102
3430 -6871 2241 -1935 4883 -2717 7833 -2318 1280 173 2476 591 3577 1252 946
568 1954 1437 2673 2304 913 1103 1494 2300 1766 3638 37 181 136 753 136 780
-1 8 -34 -115 -74 -275 -201 -793 -433 -1433 -775 -2130 -224 -457 -401 -765
-668 -1167 -998 -1504 -2414 -2714 -4057 -3468 -1150 -528 -2329 -819 -3606
-891 -269 -15 -981 -6 -1230 15 -1023 89 -1924 309 -2805 684 -208 89 -591
276 -780 381 -234 131 -186 114 165 -57 1017 -496 2108 -805 3235 -916 362
-36 478 -41 965 -41 515 1 674 9 1071 55 1114 130 2203 457 3221 966 2081
1041 3732 2822 4643 5009 419 1007 661 2020 756 3175 17 208 23 1009 10 1249
-78 1395 -421 2718 -1017 3921 -408 824 -859 1494 -1468 2180 -173 195 -583
601 -781 774 -645 564 -1245 965 -2025 1350 -673 334 -985 447 -1403 511 -340
53 -515 89 -1002 211 -431 108 -586 143 -705 160 -120 17 -647 30 -614 15 19
-8 86 -25 546 -136 214 -52 364 -99 458 -144 76 -37 104 -38 -255 14 -562 81
-838 100 -1455 100 -514 0 -634 -5 -1005 -45 -1464 -158 -2883 -679 -4148
-1523 -1241 -827 -2275 -1961 -3058 -3351 -41 -73 -44 -76 -47 -48 -5 46 16
84 179 334 388 594 1266 1905 1346 2013 250 333 717 803 1128 1135 836 674
1785 1159 2900 1481 61 17 265 71 455 119 337 86 375 103 165 74z m2475 -343
c48 -5 -106 -8 -422 -9 l-498 -2 0 -24 c0 -23 4 -25 73 -32 64 -7 68 -8 37
-15 -19 -4 -255 -31 -525 -60 l-489 -54 819 -6 c854 -6 978 -11 1410 -60 937
-104 1769 -318 2590 -666 230 -98 722 -344 935 -469 1893 -1108 3215 -2674
3988 -4724 133 -352 327 -959 407 -1275 81 -320 108 -555 145 -1270 5 -110 19
-378 31 -595 33 -622 13 -966 -92 -1515 -92 -487 -286 -1219 -307 -1157 -1 5
24 170 57 365 34 195 61 363 61 373 0 45 -21 -15 -70 -196 -151 -566 -196
-710 -315 -1020 -835 -2163 -2122 -3715 -3905 -4710 -963 -538 -2163 -927
-3295 -1069 -386 -49 -507 -55 -1030 -56 -510 0 -605 4 -960 46 -1352 156
-2633 631 -3783 1402 -806 540 -1537 1228 -2111 1987 -944 1247 -1522 2640
-1746 4204 -223 1560 -50 3061 527 4575 49 128 88 237 86 242 -3 10 -132 -267
-182 -392 -141 -350 -306 -930 -401 -1404 -116 -581 -163 -1040 -172 -1667
-13 -913 79 -1690 297 -2508 512 -1922 1673 -3651 3260 -4857 1013 -769 2131
-1290 3366 -1567 1099 -248 2219 -282 3314 -101 274 46 454 83 768 161 145 36
266 63 269 60 7 -6 -243 -86 -441 -140 -502 -138 -970 -218 -1566 -268 -242
-20 -1051 -17 -1310 5 -1419 123 -2677 525 -3880 1242 -1130 674 -2170 1667
-2926 2795 -729 1087 -1209 2289 -1424 3564 -101 601 -136 1074 -127 1706 6
395 13 511 48 850 221 2142 1192 4183 2714 5705 650 651 1343 1163 2163 1599
1057 563 2295 924 3442 1005 85 7 175 13 200 15 78 6 892 -4 970 -13z"/>
<path d="M10905 19270 c-1844 -89 -3390 -650 -4710 -1711 -680 -546 -1303
-1237 -1820 -2019 -1070 -1617 -1522 -3421 -1349 -5390 156 -1784 756 -3314
1807 -4613 349 -432 835 -917 1292 -1292 1179 -967 2487 -1558 3911 -1769 450
-67 836 -91 1349 -83 732 11 1395 95 2038 258 1252 317 2362 916 3392 1828
155 137 603 583 736 732 793 889 1292 1800 1555 2839 128 502 217 1038 259
1560 20 236 31 862 17 940 l-10 55 -1 -82 c-3 -200 -48 -643 -97 -948 -398
-2478 -1941 -4688 -4124 -5907 -1497 -836 -3198 -1164 -4910 -947 -2509 317
-4755 1857 -6017 4124 -594 1066 -933 2186 -1040 3435 -24 290 -24 1000 0
1290 116 1347 507 2569 1180 3685 347 575 742 1080 1222 1561 368 369 694 644
1110 936 1443 1012 3071 1501 4784 1438 1570 -58 2929 -485 4181 -1315 489
-324 893 -654 1370 -1120 215 -211 219 -214 85 -71 -161 172 -446 443 -655
625 -1353 1175 -2863 1817 -4577 1946 -248 19 -741 26 -978 15z"/>
<path d="M3419 14908 c-52 -122 -96 -226 -97 -232 -9 -29 44 67 133 242 81
159 97 195 85 202 -8 6 -18 10 -21 10 -3 0 -48 -100 -100 -222z"/>
<path d="M20882 8910 c0 -14 2 -19 5 -12 2 6 2 18 0 25 -3 6 -5 1 -5 -13z"/>
</g>
</svg>
