<svg xmlns="http://www.w3.org/2000/svg" width="38" height="36" viewBox="0 0 38 36">
  <g id="Polygon_5" data-name="Polygon 5" fill="none">
    <path d="M17.128,4.974a2,2,0,0,1,3.744,0l2.6,6.918a2,2,0,0,0,1.783,1.294l7.395.328a2,2,0,0,1,1.155,3.565l-5.777,4.585a2,2,0,0,0-.684,2.1l1.97,7.1a2,2,0,0,1-3.027,2.205L20.1,29a2,2,0,0,0-2.2,0L11.709,33.07a2,2,0,0,1-3.027-2.205l1.97-7.1a2,2,0,0,0-.684-2.1L4.192,17.078a2,2,0,0,1,1.155-3.565l7.395-.328a2,2,0,0,0,1.783-1.294Z" stroke="none"/>
    <path d="M 18.99999809265137 5.678583145141602 L 19 5.678577423095703 L 16.39665985107422 12.59657669067383 C 15.83193969726562 14.09724807739258 14.43201065063477 15.11280822753906 12.83015060424805 15.18385696411133 L 5.435558319091797 15.51172828674316 C 5.435554504394531 15.51172828674316 5.435554504394531 15.51172828674316 5.435550689697266 15.51172828674316 L 5.435550689697266 15.51172828674316 C 5.435554504394531 15.51173210144043 5.435554504394531 15.51173400878906 5.435558319091797 15.51173782348633 L 11.21212005615234 20.09678840637207 C 12.47348022460938 21.09797668457031 13.01028060913086 22.74757766723633 12.57967948913574 24.29933738708496 L 10.60942077636719 31.3997631072998 C 10.60942459106445 31.39976119995117 10.60942649841309 31.39975929260254 10.60943031311035 31.39975738525391 L 16.80105018615723 27.32504653930664 C 17.455810546875 26.8941478729248 18.21619033813477 26.6663875579834 19 26.6663875579834 C 19.78380966186523 26.6663875579834 20.544189453125 26.8941478729248 21.19894027709961 27.32503890991211 L 27.39054870605469 31.39974975585938 C 27.39055824279785 31.39974594116211 27.39056587219238 31.39973831176758 27.39057922363281 31.39975738525391 L 25.42031860351562 24.29934692382812 C 24.98971939086914 22.74757766723633 25.52651977539062 21.09797668457031 26.78787994384766 20.09678840637207 L 32.56443786621094 15.51172828674316 C 32.56443786621094 15.51172828674316 32.56443786621094 15.51172828674316 32.56444931030273 15.51172828674316 L 25.16984939575195 15.18384742736816 C 23.5680103302002 15.11281776428223 22.16806983947754 14.09725761413574 21.60334014892578 12.59657669067383 L 19 5.678586959838867 C 19 5.678585052490234 18.99999809265137 5.678585052490234 18.99999809265137 5.678583145141602 M 19 3.678573608398438 C 19.77340698242188 3.678573608398438 20.54681587219238 4.110443115234375 20.87184906005859 4.974178314208984 L 23.47518920898438 11.89217758178711 C 23.75714111328125 12.64141845703125 24.45869064331055 13.15034675598145 25.2584400177002 13.1858081817627 L 32.65303802490234 13.51368713378906 C 34.50151062011719 13.59564781188965 35.2570915222168 15.92791748046875 33.80783843994141 17.07823753356934 L 28.03128051757812 21.66329765319824 C 27.40198135375977 22.16279792785645 27.13267135620117 22.99038696289062 27.34749984741211 23.76457786560059 L 29.3177604675293 30.86499786376953 C 29.81174087524414 32.64520645141602 27.83436965942383 34.0860595703125 26.29109954833984 33.07043838500977 L 20.0994701385498 28.99571800231934 C 19.43224906921387 28.55661773681641 18.56775093078613 28.55661773681641 17.9005298614502 28.99571800231934 L 11.70890045166016 33.07043838500977 C 10.16562461853027 34.08606719970703 8.188261032104492 32.64520645141602 8.682239532470703 30.86499786376953 L 10.65250015258789 23.76457786560059 C 10.86733055114746 22.99038696289062 10.59802055358887 22.16279792785645 9.968719482421875 21.66329765319824 L 4.192161560058594 17.0782470703125 C 2.742900848388672 15.92791748046875 3.498489379882812 13.59565734863281 5.346958160400391 13.51368713378906 L 12.7415599822998 13.18581771850586 C 13.54130935668945 13.15034675598145 14.24286079406738 12.64141845703125 14.52481079101562 11.89217758178711 L 17.12815093994141 4.974178314208984 C 17.45318412780762 4.110443115234375 18.22659301757812 3.678573608398438 19 3.678573608398438 Z" stroke="none" fill="#07265a"/>
  </g>
</svg>
