<?xml version="1.0" encoding="UTF-8"?>
<svg id="Layer_1" data-name="Layer 1" xmlns="http://www.w3.org/2000/svg" viewBox="0 0 1080 1080">
  <defs>
    <style>
      .cls-1 {
        fill: none;
        stroke-width: 9.79px;
      }

      .cls-1, .cls-2 {
        stroke: #fff;
        stroke-miterlimit: 10;
      }

      .cls-2 {
        stroke-width: 10px;
      }

      .cls-2, .cls-3 {
        fill: #fff;
      }

      .cls-3 {
        stroke-width: 0px;
      }
    </style>
  </defs>
  <g>
    <g>
      <path class="cls-1" d="M290.62,250.81c-125.44-.44-161.95,39.08-162.16,165.68-.15,93.03,36.92,152.49,144.64,155.99l177.67-2.1-.7-60.86h-150.39c-98.63,0-101.97-46.17-101.97-93.03,0-51.06-1.62-110.52,104.7-107.72l337.91.03v-59.29l-349.7,1.3Z"/>
      <rect class="cls-3" x="635.69" y="244.52" width="60.86" height="69.25"/>
    </g>
    <rect class="cls-2" x="456.29" y="509.53" width="55.26" height="60.86"/>
  </g>
  <g>
    <g>
      <path class="cls-1" d="M789.38,829.19c125.44.44,161.95-39.08,162.16-165.68.15-93.03-36.92-152.49-144.64-155.99l-177.67,2.1.7,60.86c14.05,0,75.97,0,150.39,0,98.63,0,101.97,46.17,101.97,93.03,0,51.06,1.62,110.52-104.7,107.72l-337.91-.03v59.29s349.7-1.3,349.7-1.3Z"/>
      <rect class="cls-3" x="383.45" y="766.23" width="60.86" height="69.25" transform="translate(827.76 1601.71) rotate(-180)"/>
    </g>
    <rect class="cls-2" x="568.45" y="509.62" width="55.26" height="60.86"/>
  </g>
</svg>