<?xml version="1.0" standalone="no"?>
<!DOCTYPE svg PUBLIC "-//W3C//DTD SVG 20010904//EN"
 "http://www.w3.org/TR/2001/REC-SVG-20010904/DTD/svg10.dtd">
<svg version="1.0" xmlns="http://www.w3.org/2000/svg"
 width="2230.000000pt" height="2230.000000pt" viewBox="0 0 2230.000000 2230.000000"
 preserveAspectRatio="xMidYMid meet">

<g transform="translate(0.000000,2230.000000) scale(0.100000,-0.100000)"
fill="#F06223" stroke="none">
<path d="M10725 22283 c-1331 -53 -2634 -363 -3945 -938 -1756 -771 -3163
-1836 -4284 -3243 -1419 -1781 -2236 -3798 -2436 -6012 -34 -379 -41 -519 -47
-950 -11 -816 41 -1498 172 -2234 261 -1470 859 -2989 1628 -4141 354 -529
657 -897 1136 -1376 390 -389 688 -647 1024 -885 155 -110 180 -125 193 -112
12 12 -15 42 -208 226 -210 199 -518 517 -710 732 -338 377 -707 866 -955
1262 -166 266 -347 590 -341 609 2 6 53 -65 114 -158 61 -92 158 -240 216
-328 135 -205 210 -287 828 -906 695 -696 1047 -1010 1575 -1405 540 -405 952
-656 1680 -1024 519 -261 773 -360 1104 -425 69 -13 167 -41 216 -60 129 -52
623 -216 807 -269 1640 -472 3255 -531 4908 -180 1652 351 3133 1045 4385
2054 897 724 1723 1660 2386 2704 169 267 146 240 192 221 l37 -15 -16 -33
c-37 -70 -262 -440 -351 -577 -275 -419 -579 -817 -927 -1210 -170 -193 -681
-700 -881 -875 -762 -665 -1597 -1229 -2430 -1640 -1374 -678 -2882 -1032
-4525 -1062 -225 -4 -352 -10 -330 -15 50 -11 174 -10 695 7 1001 33 1520 64
1850 111 634 90 1642 423 2470 815 755 357 1615 889 2205 1364 561 451 1068
969 1615 1650 845 1051 1419 2036 1838 3155 369 983 578 1979 658 3130 17 252
23 1015 10 1295 -75 1589 -428 2998 -1087 4330 -482 976 -1092 1909 -1743
2665 -382 443 -828 883 -1261 1244 -1117 931 -2402 1604 -3857 2021 -1185 340
-2547 521 -3608 478z m1085 -1234 c1671 -84 3294 -623 4800 -1592 834 -537
1483 -1102 2125 -1852 404 -472 877 -1112 1145 -1550 298 -489 578 -1080 890
-1881 229 -586 351 -1065 449 -1759 317 -2240 -17 -4296 -1013 -6230 -892
-1733 -2097 -3062 -3648 -4024 -1136 -704 -2534 -1224 -3828 -1425 -505 -78
-813 -100 -1415 -101 -611 0 -705 7 -1503 116 -379 51 -469 59 -377 33 95 -27
441 -93 615 -118 297 -43 492 -58 825 -63 288 -5 1357 10 1595 22 224 12 -48
-32 -400 -65 -526 -48 -1175 -46 -1735 5 -2722 251 -5325 1669 -6893 3753 -51
67 -89 122 -84 122 5 0 46 -32 92 -71 47 -39 86 -66 88 -59 2 6 -28 52 -67
103 -1319 1698 -2065 3688 -2221 5922 -18 252 -24 848 -11 1115 53 1120 241
2079 583 2985 442 1170 958 2100 1574 2836 226 269 677 725 1279 1289 1485
1393 3279 2198 5430 2439 576 64 1112 80 1705 50z m9869 -9044 c85 -701 97
-1446 35 -2145 -120 -1365 -542 -2761 -1236 -4088 -55 -106 -103 -191 -105
-188 -3 3 63 175 147 383 253 628 343 883 519 1463 268 889 425 1593 511 2288
48 395 61 660 80 1612 10 544 19 854 25 848 2 -2 12 -79 24 -173z"/>
<path d="M9075 20590 c-455 -67 -548 -87 -795 -166 -1488 -479 -2751 -1246
-3836 -2329 -420 -419 -753 -812 -1114 -1315 -1600 -2224 -2192 -4750 -1764
-7520 138 -892 364 -1696 701 -2490 101 -239 348 -734 480 -965 685 -1191
1593 -2203 2765 -3081 1483 -1110 3135 -1747 4918 -1894 526 -43 1168 -41
1725 5 1017 86 1958 304 2835 660 1037 420 1973 1013 2885 1827 1329 1187
2201 2490 2666 3980 61 198 156 570 198 773 35 172 131 721 131 744 -1 9 -29
-96 -64 -234 -417 -1644 -1135 -3049 -2181 -4265 -701 -814 -1562 -1528 -2497
-2068 -2193 -1267 -4789 -1648 -7168 -1052 -445 112 -892 263 -1315 443 -315
135 -938 454 -907 465 7 2 133 -55 280 -126 654 -319 1271 -544 1932 -706
1825 -446 3722 -349 5483 280 1611 576 3003 1532 4123 2834 839 975 1496 2147
1907 3405 460 1405 605 2914 421 4385 -267 2138 -1182 4089 -2625 5596 -811
846 -1680 1471 -2760 1985 -595 282 -858 373 -1259 434 -276 42 -490 87 -1010
215 -680 167 -684 168 -1065 175 -289 6 -291 7 144 -95 162 -39 333 -81 380
-96 165 -49 340 -118 329 -129 -2 -3 -69 7 -149 20 -497 85 -1106 135 -1639
135 -1433 0 -2765 -312 -4065 -950 -1244 -612 -2303 -1461 -3181 -2550 -327
-406 -745 -1026 -975 -1447 -18 -35 -37 -63 -41 -63 -10 0 1 76 17 115 26 64
1354 2063 1502 2261 50 66 132 169 183 230 143 167 625 643 815 803 739 623
1541 1079 2500 1421 263 94 569 184 980 289 193 49 339 89 325 89 -14 0 -110
-12 -215 -28z m2235 -311 c458 -19 432 -26 -96 -28 -448 -1 -503 -3 -508 -17
-11 -29 -6 -31 75 -38 44 -4 78 -10 76 -13 -3 -3 -239 -31 -524 -64 l-518 -58
555 4 c762 6 1191 -11 1675 -66 1605 -180 2999 -713 4295 -1642 433 -311 790
-618 1180 -1013 660 -669 1178 -1397 1609 -2261 279 -559 454 -1009 691 -1778
213 -691 220 -740 287 -1970 51 -933 36 -1282 -83 -1890 -72 -367 -239 -1029
-277 -1097 -23 -42 -40 -50 -32 -15 6 28 125 725 125 734 0 4 -4 3 -9 -2 -5
-6 -46 -147 -91 -315 -110 -411 -157 -566 -252 -820 -464 -1241 -1093 -2298
-1884 -3170 -156 -171 -462 -474 -624 -616 -1029 -902 -2226 -1515 -3659
-1874 -900 -225 -1754 -306 -2641 -249 -1791 114 -3521 811 -4935 1988 -317
263 -725 661 -990 965 -1346 1540 -2106 3443 -2216 5547 -14 276 -6 862 16
1119 78 917 266 1733 601 2608 41 106 74 196 73 200 0 4 -18 -31 -41 -78 -197
-415 -372 -957 -503 -1558 -215 -986 -261 -2062 -134 -3117 182 -1518 786
-3012 1723 -4265 275 -367 502 -627 855 -981 465 -464 862 -791 1381 -1134
968 -641 1963 -1051 3105 -1280 1312 -263 2580 -227 3903 111 117 30 225 54
240 53 35 -1 -219 -85 -453 -149 -1452 -398 -3102 -376 -4630 61 -1949 559
-3669 1788 -4893 3498 -834 1164 -1388 2531 -1601 3946 -71 472 -92 745 -98
1269 -5 442 2 682 33 1006 119 1277 503 2545 1105 3647 663 1215 1527 2224
2587 3020 865 650 1856 1144 2902 1448 693 201 1439 319 2130 338 52 2 122 4
155 5 33 1 175 -3 315 -9z"/>
<path d="M10820 19264 c-497 -33 -919 -86 -1310 -164 -1788 -358 -3313 -1283
-4526 -2745 -1505 -1815 -2166 -3922 -1953 -6230 168 -1832 789 -3372 1886
-4685 834 -996 1966 -1866 3078 -2365 1247 -559 2609 -778 4045 -650 877 79
1624 251 2362 546 1171 467 2252 1243 3179 2279 573 641 1016 1354 1300 2092
243 633 422 1485 484 2303 19 257 29 752 17 830 l-10 60 -1 -70 c-3 -181 -51
-627 -97 -905 -359 -2185 -1577 -4140 -3378 -5423 -1562 -1113 -3454 -1625
-5356 -1452 -1610 147 -3145 786 -4393 1828 -490 409 -957 903 -1335 1412
-878 1183 -1435 2593 -1601 4055 -40 356 -46 474 -46 960 1 494 8 616 55 1010
249 2046 1259 3950 2805 5285 711 613 1521 1104 2375 1440 1245 490 2624 638
4030 434 1681 -243 3169 -982 4461 -2214 63 -60 39 -33 -56 60 -633 629 -1408
1182 -2190 1561 -840 407 -1672 635 -2655 730 -155 15 -1016 28 -1170 18z"/>
<path d="M17150 16638 c41 -45 50 -53 50 -45 0 2 -21 23 -47 47 l-48 45 45
-47z"/>
<path d="M3430 14927 c-47 -110 -86 -205 -88 -211 -4 -12 197 370 204 389 3 7
-3 15 -13 17 -15 4 -32 -27 -103 -195z"/>
<path d="M20871 8854 c0 -11 3 -14 6 -6 3 7 2 16 -1 19 -3 4 -6 -2 -5 -13z"/>
<path d="M9358 803 c7 -3 16 -2 19 1 4 3 -2 6 -13 5 -11 0 -14 -3 -6 -6z"/>
</g>
</svg>
